<svg width="143" height="43" viewBox="0 0 143 43" fill="none" xmlns="http://www.w3.org/2000/svg">
<path d="M10.9088 28.5673C11.3424 28.5673 11.7583 28.7418 12.0649 29.0524C12.3715 29.3629 12.5437 29.7842 12.5437 30.2234V31.2294C12.5432 31.5796 12.4746 31.9262 12.3418 32.2495C12.209 32.5728 12.0147 32.8664 11.7699 33.1136C11.5251 33.3608 11.2346 33.5567 10.9151 33.6902C10.5955 33.8237 10.2531 33.8921 9.90745 33.8916H2.63627C1.93887 33.8927 1.26956 33.6134 0.775278 33.115C0.281 32.6167 0.00216497 31.94 0 31.2336L0 30.2234C0 29.7842 0.172247 29.3629 0.478849 29.0524C0.785451 28.7418 1.20129 28.5673 1.63489 28.5673C2.06849 28.5673 2.48434 28.3928 2.79094 28.0823C3.09754 27.7717 3.26979 27.3504 3.26979 26.9112V6.98036C3.26979 6.54114 3.09754 6.11991 2.79094 5.80934C2.48434 5.49876 2.06849 5.32429 1.63489 5.32429C1.20129 5.32429 0.785451 5.14981 0.478849 4.83923C0.172247 4.52866 0 4.10743 0 3.66821V2.66214C0.000536326 2.312 0.0691508 1.9654 0.201926 1.64212C0.334701 1.31884 0.529036 1.02521 0.773836 0.77801C1.01864 0.530808 1.30911 0.334867 1.62866 0.201377C1.94822 0.0678858 2.2906 -0.0005409 2.63627 3.21971e-06H5.0886C6.19612 1.07573e-06 7.2584 0.445094 8.0423 1.2376C8.8262 2.0301 9.26768 3.10527 9.26984 4.22714V26.9112C9.26984 27.1291 9.31227 27.3447 9.39468 27.5459C9.4771 27.7471 9.59789 27.9299 9.75014 28.0837C9.90238 28.2376 10.0831 28.3595 10.2819 28.4424C10.4807 28.5254 10.6938 28.5678 10.9088 28.5673ZM40.4636 14.2837C40.03 14.2837 39.6142 14.4581 39.3076 14.7687C39.001 15.0793 38.8287 15.5005 38.8287 15.9397V26.9112C38.8287 27.3504 39.001 27.7717 39.3076 28.0823C39.6142 28.3928 40.03 28.5673 40.4636 28.5673C40.8972 28.5673 41.313 28.7418 41.6196 29.0524C41.9262 29.3629 42.0985 29.7842 42.0985 30.2234V31.2294C42.098 31.5796 42.0293 31.9262 41.8966 32.2495C41.7638 32.5728 41.5695 32.8664 41.3247 33.1136C41.0799 33.3608 40.7894 33.5567 40.4698 33.6902C40.1503 33.8237 39.8079 33.8921 39.4622 33.8916H34.5044C34.2829 33.8921 34.0635 33.8484 33.8587 33.7629C33.654 33.6775 33.4679 33.5519 33.3111 33.3934C33.1542 33.235 33.0298 33.0468 32.945 32.8396C32.8601 32.6323 32.8164 32.4102 32.8164 32.1858V30.654C32.8169 30.6319 32.8131 30.6099 32.8051 30.5893C32.7972 30.5687 32.7852 30.55 32.77 30.5342C32.7547 30.5184 32.7365 30.5058 32.7164 30.4972C32.6963 30.4886 32.6747 30.4842 32.6529 30.4842C32.6219 30.4842 32.5915 30.4926 32.5649 30.5086C32.5383 30.5247 32.5164 30.5477 32.5017 30.5753C31.7455 32.0244 29.4567 34.3636 25.5861 34.3636C20.4362 34.3636 14.2358 30.2234 14.2358 21.4131C14.2358 12.6027 20.4689 8.45427 25.5861 8.45427C29.4567 8.45427 31.7169 10.8018 32.5017 12.2467C32.5164 12.2743 32.5383 12.2973 32.5649 12.3133C32.5915 12.3294 32.6219 12.3378 32.6529 12.3378C32.6747 12.3378 32.6963 12.3334 32.7164 12.3248C32.7365 12.3162 32.7547 12.3036 32.77 12.2878C32.7852 12.272 32.7972 12.2532 32.8051 12.2327C32.8131 12.2121 32.8169 12.1901 32.8164 12.168V10.6486C32.8169 10.4267 32.8606 10.2072 32.9449 10.0025C33.0292 9.79772 33.1525 9.61181 33.3077 9.45534C33.4629 9.29886 33.6471 9.1749 33.8496 9.09051C34.0521 9.00612 34.2691 8.96297 34.4881 8.96351H39.45C39.7967 8.96133 40.1404 9.02855 40.4613 9.1613C40.7823 9.29406 41.0742 9.48974 41.3203 9.73711C41.5664 9.98447 41.7619 10.2787 41.8954 10.6027C42.0289 10.9268 42.098 11.2745 42.0985 11.6257V12.6276C42.0985 13.0668 41.9262 13.488 41.6196 13.7986C41.313 14.1092 40.8972 14.2837 40.4636 14.2837ZM32.9962 21.4296C32.9962 16.6353 29.6692 14.1719 26.4321 14.1719C23.195 14.1719 19.9988 16.6146 19.9988 21.4296C19.9988 26.2447 23.195 28.6832 26.4321 28.6832C29.6692 28.6832 32.9962 26.224 32.9962 21.4296ZM72.3767 12.226C72.3713 12.7194 72.1737 13.1907 71.827 13.5373C71.4802 13.8839 71.0124 14.0778 70.5252 14.0766C70.1549 14.077 69.7931 14.1895 69.4865 14.3998C69.1798 14.61 68.9423 14.9084 68.8045 15.2566L61.4475 33.8874L58.3412 41.3191C58.0389 41.9692 57.4998 42.4754 56.8369 42.7313C56.1741 42.9873 55.4391 42.9731 54.7863 42.6918C54.1336 42.4105 53.6138 41.8839 53.3362 41.2227C53.0586 40.5614 53.0447 39.8169 53.2975 39.1455L54.9324 35.2744C55.1476 34.7664 55.2616 34.2204 55.2679 33.6676C55.2742 33.1148 55.1727 32.5663 54.9692 32.0533L48.3601 15.2856C48.2234 14.931 47.9847 14.6262 47.675 14.4107C47.3653 14.1951 46.9988 14.0788 46.6231 14.0766C46.1269 14.0766 45.651 13.8776 45.2994 13.523C44.9478 13.1684 44.7492 12.6871 44.747 12.1846V11.5263C44.7492 10.8451 45.0181 10.1927 45.4948 9.71216C45.9714 9.23167 46.6168 8.96241 47.2893 8.96351H53.9515C54.6239 8.96241 55.2693 9.23167 55.746 9.71216C56.2226 10.1927 56.4916 10.8451 56.4937 11.5263V13.0126C56.4894 13.2956 56.3757 13.5656 56.177 13.7646C55.9783 13.9635 55.7105 14.0756 55.431 14.0766C55.2586 14.0768 55.0888 14.1193 54.9362 14.2005C54.7835 14.2817 54.6526 14.3991 54.5545 14.5428C54.4565 14.6865 54.3943 14.8521 54.3733 15.0254C54.3522 15.1988 54.373 15.3747 54.4338 15.5381L58.3493 25.959C58.3653 26.003 58.3943 26.0409 58.4323 26.0676C58.4704 26.0942 58.5156 26.1084 58.5619 26.108C58.6076 26.1081 58.6522 26.0938 58.6895 26.0671C58.7268 26.0404 58.7551 26.0026 58.7703 25.959L62.6818 15.5588C62.7433 15.3926 62.7641 15.2137 62.7423 15.0375C62.7205 14.8613 62.6569 14.6931 62.5568 14.5473C62.4567 14.4016 62.3232 14.2826 62.1677 14.2006C62.0122 14.1186 61.8394 14.0761 61.6641 14.0766C61.3775 14.0766 61.1026 13.9616 60.8996 13.7568C60.6966 13.5519 60.582 13.2739 60.581 12.9836V11.5263C60.5815 11.1888 60.6477 10.8548 60.7758 10.5433C60.9039 10.2318 61.0914 9.94898 61.3275 9.71095C61.5636 9.47292 61.8438 9.28438 62.1519 9.15613C62.46 9.02788 62.7901 8.96242 63.1232 8.96351H69.8345C70.1676 8.96242 70.4976 9.02788 70.8058 9.15613C71.1139 9.28438 71.394 9.47292 71.6302 9.71095C71.8663 9.94898 72.0538 10.2318 72.1819 10.5433C72.31 10.8548 72.3762 11.1888 72.3767 11.5263V12.226ZM97.8238 21.4752C97.8238 30.2234 90.9941 34.3636 85.7134 34.3636C80.4327 34.3636 73.656 30.2234 73.656 21.4669C73.656 12.7104 80.4408 8.47497 85.7134 8.47497C90.9859 8.47497 97.8238 12.7973 97.8238 21.4752ZM79.4313 21.4752C79.4313 26.224 82.7011 28.6708 85.7256 28.6708C88.7502 28.6708 92.0731 26.224 92.0731 21.4752C92.0731 16.6353 88.8033 14.2174 85.7256 14.2174C82.6479 14.2174 79.419 16.6353 79.419 21.4752H79.4313ZM126.32 28.5673C126.756 28.5662 127.175 28.7395 127.486 29.0496C127.797 29.3597 127.974 29.7816 127.979 30.2234V31.2129C127.979 31.563 127.91 31.9096 127.777 32.2329C127.645 32.5562 127.45 32.8498 127.206 33.097C126.961 33.3442 126.67 33.5402 126.351 33.6737C126.031 33.8071 125.689 33.8756 125.343 33.875H119.482C119.282 33.8752 119.09 33.7967 118.946 33.6562C118.802 33.5156 118.717 33.324 118.71 33.1215C118.71 32.2645 117.075 31.7967 116.449 32.368C116.21 32.5806 115.959 32.7796 115.697 32.9642C114.379 33.8961 112.809 34.3908 111.201 34.3801C106.959 34.3636 102.59 31.1591 102.59 23.3465V15.9439C102.59 15.5047 102.417 15.0834 102.111 14.7728C101.804 14.4623 101.388 14.2878 100.955 14.2878C100.521 14.2878 100.105 14.1133 99.7986 13.8027C99.492 13.4922 99.3198 13.0709 99.3198 12.6317V11.6257C99.3203 11.2755 99.3889 10.9289 99.5217 10.6056C99.6545 10.2823 99.8488 9.98872 100.094 9.74152C100.338 9.49432 100.629 9.29838 100.948 9.16488C101.268 9.03139 101.61 8.96297 101.956 8.96351H104.38C104.928 8.96242 105.472 9.07079 105.979 9.28243C106.486 9.49406 106.947 9.80482 107.336 10.197C107.724 10.5891 108.033 11.0549 108.244 11.5679C108.455 12.0808 108.564 12.6308 108.565 13.1865V22.8704C108.565 27.1348 110.87 28.7164 113.396 28.7164C116.903 28.7164 118.636 25.309 118.71 23.6322V15.89C118.709 15.6807 118.668 15.4736 118.588 15.2804C118.509 15.0872 118.392 14.9118 118.246 14.7641C118.099 14.6165 117.926 14.4996 117.734 14.42C117.543 14.3404 117.339 14.2997 117.132 14.3002C116.925 14.3008 116.721 14.26 116.53 14.1804C116.339 14.1007 116.166 13.9837 116.019 13.836C115.873 13.6883 115.757 13.5129 115.678 13.3197C115.599 13.1266 115.558 12.9195 115.558 12.7104V11.6298C115.56 10.9212 115.84 10.2424 116.336 9.74248C116.832 9.24257 117.503 8.96241 118.203 8.96351H120.483C121.59 8.9646 122.65 9.40961 123.433 10.2011C124.216 10.9926 124.657 12.0661 124.661 13.1865V26.9112C124.666 27.3531 124.843 27.7749 125.154 28.085C125.465 28.3951 125.884 28.5684 126.32 28.5673ZM140.548 8.96351C139.897 8.96351 139.274 8.70179 138.814 8.23593C138.354 7.77007 138.095 7.13823 138.095 6.4794V5.6141C138.067 4.82917 137.739 4.08606 137.18 3.54101C136.622 2.99595 135.877 2.69141 135.101 2.69141C134.326 2.69141 133.581 2.99595 133.022 3.54101C132.464 4.08606 132.136 4.82917 132.108 5.6141V6.77335C132.107 7.06206 132.05 7.34782 131.941 7.61434C131.831 7.88086 131.671 8.12291 131.469 8.32667C131.267 8.53043 131.027 8.69191 130.764 8.80189C130.5 8.91187 130.218 8.9682 129.933 8.96765C129.648 8.96711 129.366 9.02346 129.103 9.13349C128.84 9.24352 128.6 9.40507 128.399 9.60888C128.197 9.8127 128.037 10.0548 127.928 10.3213C127.819 10.5878 127.763 10.8734 127.763 11.162V12.0935C127.763 12.3817 127.82 12.6669 127.929 12.9329C128.039 13.1989 128.199 13.4405 128.4 13.6439C128.602 13.8473 128.841 14.0084 129.104 14.1182C129.367 14.228 129.649 14.2842 129.933 14.2837C130.218 14.2831 130.5 14.3394 130.764 14.4494C131.027 14.5594 131.267 14.7209 131.469 14.9246C131.671 15.1284 131.831 15.3704 131.941 15.637C132.05 15.9035 132.107 16.1892 132.108 16.478V30.8858C132.136 31.6697 132.464 32.4117 133.021 32.956C133.579 33.5003 134.323 33.8044 135.097 33.8044C135.872 33.8044 136.616 33.5003 137.173 32.956C137.731 32.4117 138.059 31.6697 138.087 30.8858V16.7678C138.087 16.1089 138.346 15.4771 138.805 15.0112C139.265 14.5454 139.889 14.2837 140.539 14.2837C141.19 14.2837 141.814 14.0219 142.274 13.5561C142.733 13.0902 142.992 12.4584 142.992 11.7995V11.4435C142.99 10.7875 142.731 10.1591 142.274 9.69522C141.816 9.23138 141.195 8.96983 140.548 8.96765V8.96351Z" fill="white"/>
</svg>