<svg width="142" height="42" viewBox="0 0 142 42" fill="none" xmlns="http://www.w3.org/2000/svg">
<path d="M10.4257 27.6929C11.2913 27.6929 11.993 28.3946 11.993 29.2602V30.2125C11.993 31.6041 10.8649 32.7322 9.47333 32.7322H2.51963C1.12807 32.7322 0 31.6041 0 30.2125V29.2602C0 28.3946 0.701699 27.6929 1.56729 27.6929C2.43288 27.6929 3.13458 26.9912 3.13458 26.1256V7.25328C3.13458 6.38769 2.43288 5.68599 1.56729 5.68599C0.701699 5.68599 0 4.98429 0 4.11871V3.16636C0 1.77481 1.12808 0.646729 2.51963 0.646729H4.85839C7.06753 0.646729 8.85839 2.43759 8.85839 4.64673V26.1256C8.85839 26.9912 9.56009 27.6929 10.4257 27.6929ZM38.6529 14.1698C37.7861 14.1698 37.0833 14.8725 37.0833 15.7394V26.1233C37.0833 26.9902 37.7861 27.6929 38.6529 27.6929C39.5198 27.6929 40.2225 28.3956 40.2225 29.2625V30.2125C40.2225 31.6041 39.0944 32.7322 37.7029 32.7322H32.976C32.0858 32.7322 31.3641 32.0105 31.3641 31.1203V29.6668C31.3641 29.5793 31.2932 29.5084 31.2057 29.5084C31.1455 29.5084 31.0912 29.5418 31.0631 29.595C30.3408 30.9636 28.1505 33.1836 24.4534 33.1836C19.5407 33.1836 13.6061 29.2582 13.6061 20.9166C13.6061 12.5751 19.5636 8.64969 24.4534 8.64969C28.1517 8.64969 30.3203 10.8712 31.0625 12.2396C31.091 12.2922 31.1451 12.3249 31.2048 12.3249C31.2928 12.3249 31.3641 12.2536 31.3641 12.1656V10.7277C31.3641 9.84563 32.0792 9.13056 32.9613 9.13056H37.7029C39.0944 9.13056 40.2225 10.2586 40.2225 11.6502V12.6002C40.2225 13.4671 39.5198 14.1698 38.6529 14.1698ZM31.5337 20.9314C31.5337 16.3926 28.3533 14.0619 25.2599 14.0619C22.1666 14.0619 19.1145 16.373 19.1145 20.9314C19.1145 25.4898 22.1666 27.8009 25.2599 27.8009C28.3533 27.8009 31.5337 25.4701 31.5337 20.9314ZM69.1715 12.219C69.1715 13.1961 68.3794 13.9883 67.4022 13.9883C66.6775 13.9883 66.0261 14.4302 65.7582 15.1036L58.7458 32.7322L55.7578 39.7586C55.3466 40.7256 54.3975 41.3534 53.3467 41.3534C51.4671 41.3534 50.1989 39.4328 50.937 37.7043L52.5024 34.0386C52.9174 33.0667 52.9309 31.9701 52.54 30.9882L46.2215 15.117C45.9502 14.4355 45.2908 13.9883 44.5572 13.9883C43.5679 13.9883 42.7659 13.1863 42.7659 12.1969V11.5594C42.7659 10.218 43.8533 9.13056 45.1948 9.13056H51.5693C52.9107 9.13056 53.9981 10.218 53.9981 11.5594V12.9666C53.9981 13.5308 53.5407 13.9883 52.9764 13.9883C52.2614 13.9883 51.7675 14.7039 52.0212 15.3724L55.7646 25.2377C55.7964 25.3215 55.8768 25.3769 55.9664 25.3769C56.0561 25.3769 56.1364 25.3215 56.1682 25.2377L59.9039 15.3927C60.1613 14.7144 59.6602 13.9883 58.9347 13.9883C58.3622 13.9883 57.898 13.5241 57.898 12.9516V11.5594C57.898 10.218 58.9855 9.13056 60.3269 9.13056H66.7426C68.0841 9.13056 69.1715 10.218 69.1715 11.5594V12.219ZM66.6281 29.69C66.6281 28.999 66.8195 28.3235 67.178 27.749C67.5365 27.1745 68.0461 26.7267 68.6423 26.4623C69.2385 26.1979 69.8946 26.1287 70.5275 26.2635C71.1605 26.3983 71.7419 26.731 72.1982 27.2196C72.6545 27.7082 72.9653 28.3307 73.0912 29.0084C73.2171 29.6861 73.1525 30.3885 72.9055 31.0269C72.6585 31.6653 72.2403 32.2109 71.7038 32.5948C71.1672 32.9787 70.5363 33.1836 69.891 33.1836C69.4604 33.1916 69.0328 33.1067 68.6336 32.9339C68.2343 32.7612 67.8717 32.5041 67.5672 32.1781C67.2627 31.8521 67.0226 31.4638 66.8613 31.0363C66.7 30.6088 66.6207 30.151 66.6281 29.69ZM98.8217 20.9755C98.8217 29.2385 92.2959 33.1836 87.2503 33.1836C82.2047 33.1836 75.7248 29.2582 75.7248 20.9755C75.7248 12.6929 82.2093 8.67913 87.2503 8.67913C92.2913 8.67913 98.8217 12.7616 98.8217 20.9755ZM81.2332 20.9755C81.2332 25.4701 84.3678 27.7861 87.2503 27.7861C90.1328 27.7861 93.3132 25.4701 93.3132 20.9755C93.3132 16.3926 90.1741 14.106 87.2503 14.106C84.3265 14.106 81.2332 16.3926 81.2332 20.9755ZM126.057 27.6929C126.932 27.6929 127.642 28.4028 127.642 29.2785V30.2125C127.642 31.6041 126.514 32.7322 125.123 32.7322H119.523C119.115 32.7322 118.784 32.4011 118.784 31.9928C118.784 31.1802 117.23 30.7382 116.623 31.2776C116.395 31.4802 116.155 31.6693 115.905 31.8436C114.631 32.7311 113.141 33.1972 111.621 33.1836C107.552 33.1836 103.372 30.1414 103.372 22.7469V15.7394C103.372 14.8725 102.67 14.1698 101.803 14.1698C100.936 14.1698 100.233 13.4671 100.233 12.6002V11.6502C100.233 10.2586 101.361 9.13056 102.753 9.13056H105.069C107.278 9.13056 109.069 10.9214 109.069 13.1306V22.2955C109.069 26.3337 111.273 27.8303 113.688 27.8303C117.038 27.8303 118.692 24.6065 118.775 23.0168V15.69C118.775 14.8585 118.101 14.1845 117.269 14.1845C116.438 14.1845 115.764 13.5105 115.764 12.6791V11.6575C115.764 10.2619 116.895 9.13056 118.291 9.13056H120.471C122.68 9.13056 124.471 10.9214 124.471 13.1306V26.1073C124.471 26.983 125.181 27.6929 126.057 27.6929ZM139.654 9.13546C138.358 9.13546 137.307 8.08496 137.307 6.78911V5.96202C137.307 4.38144 136.026 3.10012 134.445 3.10012C132.865 3.10012 131.583 4.38144 131.583 5.96202V7.05949C131.583 8.20602 130.654 9.13546 129.508 9.13546C128.361 9.13546 127.432 10.0649 127.432 11.2114V12.0939C127.432 13.2404 128.361 14.1698 129.508 14.1698C130.654 14.1698 131.583 15.0993 131.583 16.2458V26.6968C131.583 26.8735 131.583 27.0452 131.583 27.217V29.8847C131.583 31.4627 132.863 32.742 134.441 32.742C136.019 32.742 137.298 31.4627 137.298 29.8847V16.5208C137.298 15.2224 138.351 14.1698 139.649 14.1698C140.947 14.1698 142 13.1173 142 11.8189V11.4818C142 10.186 140.95 9.13546 139.654 9.13546Z" fill="#7518E9"/>
</svg>
